
<svg width="17px" height="15px" viewBox="0 0 17 15" version="1.1" xmlns="http://www.w3.org/2000/svg" xmlns:xlink="http://www.w3.org/1999/xlink">
    <g id="Page-1" stroke="none" stroke-width="1" fill-rule="evenodd">
        <g id="github" fill-rule="nonzero">
            <g id="Group">
                <path d="M15.2428521,3.85078712 C15.4224494,3.31193058 15.5123529,2.75333252 15.5123529,2.17478329 C15.5123529,1.40329113 15.342574,0.678340072 15.0034705,0 C14.2919995,0 13.6635137,0.129804954 13.118013,0.389100394 C12.5727918,0.648465716 11.9509797,1.05080866 11.2528912,1.59612923 C10.3751005,1.38333995 9.44374501,1.27694531 8.45966343,1.27694531 C7.38218423,1.27694531 6.3546359,1.39340289 5.37705336,1.62614335 C4.66551249,1.06744047 4.03702663,0.65688644 3.4916657,0.394131865 C2.94630477,0.131377288 2.31453445,3.49407681e-05 1.596215,3.49407681e-05 C1.25704158,0.678375013 1.08747235,1.40336101 1.08747235,2.17481824 C1.08747235,2.76011104 1.17720113,3.32541773 1.35679847,3.87066842 C0.452207921,4.9281857 0,6.24492855 0,7.82114154 C0,9.20462125 0.206082701,10.3051506 0.618492691,11.1232887 C0.838027721,11.5554012 1.12391593,11.9378279 1.47643685,12.270464 C1.828818,12.6028905 2.23119989,12.8724236 2.68347769,13.078644 C3.13582538,13.2846547 3.59128283,13.4560392 4.05023438,13.5922383 C4.50915099,13.7285073 5.01621646,13.828368 5.57157056,13.8912964 C6.12688971,13.9547488 6.61735816,13.9962584 7.0429759,14.0163494 C7.46859362,14.036056 7.94071798,14.0461538 8.45962848,14.0461538 C9.07137754,14.0461538 9.626522,14.0310594 10.125551,14.0013248 C10.6244053,13.9714505 11.1945395,13.8981447 11.8364078,13.7820366 C12.4781713,13.665579 13.0435185,13.507507 13.5324496,13.3080651 C14.0212758,13.1086232 14.4902554,12.8225631 14.9391439,12.4502343 C15.3880325,12.0776608 15.7387365,11.6354854 15.9916053,11.1233237 C16.397062,10.2986167 16.6,9.19784274 16.6,7.82117648 C16.5997554,6.23828979 16.1475125,4.91487327 15.2428521,3.85078712 Z M14.0461538,11.1080895 C13.8332926,11.5438358 13.5638966,11.8860457 13.2380707,12.1356975 C12.912105,12.3851396 12.5064736,12.5845815 12.0210367,12.7344075 C11.5353552,12.883989 11.0700443,12.9820328 10.6244053,13.0284341 C10.1786266,13.0750451 9.68333625,13.0982458 9.13783555,13.0982458 L7.46184999,13.0982458 C6.91652399,13.0982458 6.42095414,13.0750451 5.97541998,13.0284341 C5.52985087,12.9820328 5.06433038,12.883989 4.57878864,12.7344075 C4.0934216,12.5845815 3.68779019,12.3851396 3.36182451,12.1356975 C3.03585884,11.8860107 2.76653273,11.5438358 2.55370639,11.1080895 C2.34091499,10.6723432 2.23448435,10.1620332 2.23448435,9.57684525 C2.23448435,8.77855353 2.46394266,8.10010863 2.92289421,7.54172021 C3.38181084,6.98301734 4.00358798,6.70377072 4.78829556,6.70377072 C5.07439343,6.70377072 5.72283065,6.77354742 6.73371207,6.91324062 C7.20587136,6.98637164 7.72799646,7.02295463 8.2998777,7.02295463 C8.87193365,7.02295463 9.39398886,6.98647647 9.86607829,6.91324062 C10.890447,6.77351249 11.5386745,6.70377072 11.8115297,6.70377072 C12.5962024,6.70377072 13.2179795,6.9831571 13.6768961,7.54172021 C14.1358477,8.10035322 14.3651662,8.77855353 14.3651662,9.57684525 C14.3651662,10.1621381 14.2587356,10.6727275 14.0461538,11.1080895 Z" id="Shape"></path>
                <path d="M5.83095361,8.0008742 C5.62809105,7.77463873 5.38710876,7.66153846 5.10772725,7.66153846 C4.82827585,7.66153846 4.58725862,7.77477849 4.38443099,8.0008742 C4.18170819,8.22686508 4.03862823,8.47965484 3.95554053,8.7586844 C3.87227814,9.03827302 3.83076923,9.31087366 3.83076923,9.57704537 C3.83076923,9.84293756 3.87238296,10.1155731 3.95554053,10.3951268 C4.03852342,10.6743311 4.18153349,10.9269811 4.38443099,11.152937 C4.58736344,11.3791725 4.82827585,11.4923077 5.10772725,11.4923077 C5.38710876,11.4923077 5.62819587,11.3789628 5.83095361,11.152937 C6.0337463,10.9269461 6.17675637,10.6743311 6.25984407,10.3951268 C6.34300165,10.1155731 6.38461538,9.84293756 6.38461538,9.57704537 C6.38461538,9.31111824 6.34310648,9.03827302 6.25984407,8.7586844 C6.17672143,8.47975965 6.03385112,8.22707473 5.83095361,8.0008742 Z" id="Path"></path>
                <path d="M12.2155341,8.0008742 C12.0127414,7.77463873 11.7716892,7.66153846 11.4923776,7.66153846 C11.2131708,7.66153846 10.9719788,7.77477849 10.7690813,8.0008742 C10.5662886,8.22686508 10.4233135,8.47965484 10.3403306,8.7586844 C10.2569983,9.03827302 10.2153846,9.31087366 10.2153846,9.57704537 C10.2153846,9.84293756 10.2569983,10.1155731 10.3403306,10.3951268 C10.4233135,10.6743311 10.5663236,10.9269811 10.7690813,11.152937 C10.9720138,11.3791725 11.2131708,11.4923077 11.4923776,11.4923077 C11.7716892,11.4923077 12.0127763,11.3789628 12.2155341,11.152937 C12.4182219,10.9269461 12.5613019,10.6743311 12.6445293,10.3951268 C12.727652,10.1155731 12.7692308,9.84293756 12.7692308,9.57704537 C12.7692308,9.31111824 12.727652,9.03827302 12.6445293,8.7586844 C12.5613368,8.47975965 12.4182219,8.22707473 12.2155341,8.0008742 Z" id="Path"></path>
            </g>
        </g>
    </g>
</svg>