<svg width="11px" height="9px" viewBox="0 0 11 9" version="1.1" xmlns="http://www.w3.org/2000/svg" xmlns:xlink="http://www.w3.org/1999/xlink">
    <g id="Page-1" stroke="none" stroke-width="1" fill-rule="evenodd">
        <g id="Artboard" transform="translate(-148.000000, -121.000000)">
            <g id="github" transform="translate(141.000000, 113.000000)">
                <g transform="translate(7.000000, 8.000000)">
                    <path d="M10.1006851,2.46737181 C10.2196954,2.12210229 10.27927,1.76418349 10.27927,1.39348108 C10.27927,0.89915149 10.1667659,0.434642872 9.94205879,0 C9.4706021,0 9.05413558,0.0831718487 8.69265921,0.249314053 C8.33136807,0.415501034 7.91932391,0.673300182 7.45673511,1.0227115 C6.87506657,0.886367877 6.25790332,0.818196065 5.60580107,0.818196065 C4.89180883,0.818196065 4.21090331,0.892815654 3.56310765,1.04194289 C3.09160466,0.683956925 2.67513813,0.420896569 2.31375438,0.252537942 C1.95237063,0.0841793139 1.53372765,2.23881154e-05 1.05773283,2.23881154e-05 C0.832979362,0.43466526 0.720614206,0.899196267 0.720614206,1.39350347 C0.720614206,1.76852679 0.78007304,2.13074411 0.899083322,2.48011065 C0.299655851,3.15770935 0,4.00140548 0,5.01135575 C0,5.89781318 0.136560826,6.60297165 0.409844554,7.12718937 C0.555319574,7.40406319 0.744763569,7.64910112 0.978361767,7.86223598 C1.21186735,8.07523651 1.47850595,8.24793843 1.77820811,8.38007308 C2.07795658,8.51207341 2.37976573,8.62188712 2.68389025,8.70915599 C2.98799162,8.79646964 3.32399886,8.86045488 3.69200459,8.90077587 C4.05998716,8.94143269 4.38499637,8.96802977 4.66703222,8.98090294 C4.94906806,8.99352983 5.26192155,9 5.60577791,9 C6.01115379,9 6.3790206,8.99032833 6.70970247,8.97127605 C7.04026858,8.95213421 7.41806835,8.90516394 7.84340276,8.83076824 C8.26866771,8.75614865 8.64329541,8.65486481 8.96728585,8.52707345 C9.29120684,8.39928209 9.60197649,8.21599059 9.89943273,7.97742283 C10.196889,7.73869835 10.4292832,7.45537675 10.5968469,7.12721176 C10.865523,6.59878507 11,5.89346988 11,5.01137814 C10.9998379,3.99715173 10.7001589,3.14917948 10.1006851,2.46737181 Z M9.30769231,7.11745054 C9.16663965,7.39665273 8.98812423,7.61592193 8.7722155,7.77588501 C8.55621415,7.93571377 8.28742225,8.06350513 7.96574718,8.15950537 C7.64391004,8.25534889 7.33557153,8.31816995 7.04026858,8.34790136 C6.74487302,8.37776711 6.4166686,8.39263282 6.05519223,8.39263282 L4.94459939,8.39263282 C4.58323879,8.39263282 4.25484913,8.37776711 3.95961565,8.34790136 C3.66435901,8.31816995 3.35588158,8.25534889 3.03413705,8.15950537 C2.71250829,8.06350513 2.44371639,7.93571377 2.22771504,7.77588501 C2.01171369,7.61589954 1.83324458,7.39665273 1.69221508,7.11745054 C1.55120873,6.83824835 1.4806824,6.51126993 1.4806824,6.13631377 C1.4806824,5.6248125 1.63273309,5.19010246 1.93685761,4.83231799 C2.24095899,4.47433203 2.65297999,4.29540621 3.17296694,4.29540621 C3.36254986,4.29540621 3.79223718,4.34011527 4.46209836,4.42962296 C4.774975,4.47648128 5.12096151,4.49992164 5.49991896,4.49992164 C5.87899218,4.49992164 6.22493238,4.47654845 6.53776272,4.42962296 C7.21656125,4.34009289 7.64610964,4.29540621 7.82691729,4.29540621 C8.34688108,4.29540621 8.75890209,4.47442158 9.06300346,4.83231799 C9.36712799,5.19025918 9.51908606,5.6248125 9.51908606,6.13631377 C9.51908606,6.51133709 9.44855973,6.83849462 9.30769231,7.11745054 Z" id="Shape" fill-rule="nonzero"></path>
                    <path d="M4.002542,4.90322568 C3.85691275,4.7544009 3.68391844,4.68 3.48335842,4.68 C3.28274823,4.68 3.10972883,4.75449284 2.96412466,4.90322568 C2.81859574,5.05188956 2.71588272,5.21818258 2.65623643,5.40173697 C2.59646473,5.58565912 2.56666667,5.76498436 2.56666667,5.94008045 C2.56666667,6.11499266 2.59653998,6.29434088 2.65623643,6.47824004 C2.71580748,6.66190936 2.81847033,6.82811044 2.96412466,6.97675134 C3.10980408,7.12557612 3.28274823,7.2 3.48335842,7.2 C3.68391844,7.2 3.856988,7.12543821 4.002542,6.97675134 C4.14812109,6.82808745 4.25078394,6.66190936 4.31043023,6.47824004 C4.37012669,6.29434088 4.4,6.11499266 4.4,5.94008045 C4.4,5.76514525 4.37020194,5.58565912 4.31043023,5.40173697 C4.25075886,5.21825153 4.14819634,5.05202747 4.002542,4.90322568 Z" id="Path"></path>
                    <path d="M8.03585025,4.90322568 C7.89027117,4.7544009 7.71722669,4.68 7.51671683,4.68 C7.31628222,4.68 7.14313742,4.75449284 6.99748308,4.90322568 C6.85190399,5.05188956 6.74926622,5.21818258 6.68969518,5.40173697 C6.62987331,5.58565912 6.6,5.76498436 6.6,5.94008045 C6.6,6.11499266 6.62987331,6.29434088 6.68969518,6.47824004 C6.74926622,6.66190936 6.85192908,6.82811044 6.99748308,6.97675134 C7.1431625,7.12557612 7.31628222,7.2 7.51671683,7.2 C7.71722669,7.2 7.89029625,7.12543821 8.03585025,6.97675134 C8.18135409,6.82808745 8.28406711,6.66190936 8.34381373,6.47824004 C8.40348511,6.29434088 8.43333333,6.11499266 8.43333333,5.94008045 C8.43333333,5.76514525 8.40348511,5.58565912 8.34381373,5.40173697 C8.28409219,5.21825153 8.18135409,5.05202747 8.03585025,4.90322568 Z" id="Path"></path>
                </g>
            </g>
        </g>
    </g>
</svg>
