<svg width="12px" height="12px" viewBox="0 0 12 12" version="1.1" xmlns="http://www.w3.org/2000/svg" xmlns:xlink="http://www.w3.org/1999/xlink">
    <g id="Page-1" stroke="none" stroke-width="1" fill-rule="evenodd">
        <g id="Artboard" transform="translate(-77.000000, -119.000000)">
            <g id="linkedin" transform="translate(71.000000, 113.000000)">
                <path d="M6.53462998,9.8704714 L8.73515639,9.8704714 L8.73515639,17.5403226 L6.53462998,17.5403226 L6.53462998,9.8704714 Z M14.7475822,9.79674226 C16.3115168,9.79674226 17.5403226,10.8999861 17.5403226,13.2758153 L17.5403226,17.5403226 L15.0450664,17.5403226 L15.0450664,13.5714052 C15.0450664,12.5324639 14.6548479,11.8231155 13.7963671,11.8231155 C13.1398819,11.8231155 12.7747597,12.3018499 12.6048999,12.7630779 C12.5412407,12.928716 12.5510345,13.15933 12.5510345,13.389944 L12.5510345,17.5403226 L10.0790384,17.5403226 C10.0790384,17.5403226 10.110868,10.509794 10.0790384,9.8704714 L12.5510345,9.8704714 L12.5510345,11.0743775 C12.6970221,10.5478369 13.4869468,9.79674226 14.7475822,9.79674226 Z M7.59418804,6.25 C8.40614862,6.25 8.90532227,6.82266337 8.92123707,7.57948127 C8.92123707,8.322496 8.40614862,8.91098252 7.57888535,8.91098252 L7.56297056,8.91098252 C6.76661872,8.91098252 6.25,8.32485264 6.25,7.58150125 C6.25,6.82401002 6.78161535,6.25 7.59418804,6.25 Z" id="Linkedin"></path>
            </g>
        </g>
    </g>
</svg>
