<svg width="14px" height="14px" viewBox="0 0 14 14" version="1.1" xmlns="http://www.w3.org/2000/svg" xmlns:xlink="http://www.w3.org/1999/xlink">
    <g id="Page-1" stroke="none" stroke-width="1" fill-rule="evenodd">
        <g id="linkedin" fill-rule="nonzero">
            <path d="M0.605468452,4.38330886 L3.09756461,4.38330886 L3.09756461,13.0694153 L0.605468452,13.0694153 L0.605468452,4.38330886 Z M9.90663684,4.29981061 C11.6777928,4.29981061 13.0694153,5.54923426 13.0694153,8.23986083 L13.0694153,13.0694153 L10.2435377,13.0694153 L10.2435377,8.57461639 C10.2435377,7.39801537 9.80161525,6.5946783 8.82938574,6.5946783 C8.08591625,6.5946783 7.67241536,7.13684501 7.48004914,7.65918572 C7.40795509,7.84677087 7.41904657,8.10794123 7.41904657,8.36911158 L7.41904657,13.0694153 L4.61951099,13.0694153 C4.61951099,13.0694153 4.65555801,5.10734171 4.61951099,4.38330886 L7.41904657,4.38330886 L7.41904657,5.74673252 C7.58437753,5.15042529 8.47896725,4.29981061 9.90663684,4.29981061 Z M1.80541796,0.283125 C2.72496331,0.283125 3.29027747,0.931666267 3.30830098,1.78876254 C3.30830098,2.63022672 2.72496331,3.2966877 1.78808766,3.2966877 L1.77006416,3.2966877 C0.8681957,3.2966877 0.283125,2.63289561 0.283125,1.79105017 C0.283125,0.933191348 0.885179384,0.283125 1.80541796,0.283125 Z" id="Linkedin"></path>
        </g>
    </g>
</svg>