<svg width="13px" height="10px" viewBox="0 0 13 10" version="1.1" xmlns="http://www.w3.org/2000/svg" xmlns:xlink="http://www.w3.org/1999/xlink">
    <g id="Page-1" stroke="none" stroke-width="1" fill-rule="evenodd">
        <g id="Artboard" transform="translate(-204.000000, -121.000000)">
            <g id="medium" transform="translate(198.000000, 113.000000)">
                <g id="medium-size" transform="translate(6.000000, 8.000000)">
                    <path d="M13,1.42870529 L12.2826706,1.42870529 C12.0958893,1.42870529 11.6071467,1.63683365 11.6071467,1.81401284 L11.6071467,8.24821622 C11.6071467,8.42583636 12.0958893,8.57146007 12.2826706,8.57146007 L13,8.57146007 L13,10 L8.35711983,10 L8.35711983,8.57146007 L9.28592155,8.57146007 L9.28592155,1.9046556 L9.12428802,1.9046556 L6.88930682,9.99997244 L5.15889307,9.99997244 L2.95282106,1.9046556 L2.78573348,1.9046556 L2.78573348,8.57143251 L3.71413219,8.57143251 L3.71413219,9.99997244 L0,10 L0,8.57143251 L0.515126276,8.57143251 C0.71735626,8.57143251 0.928425578,8.42583636 0.928425578,8.24818866 L0.928425578,1.81401284 C0.928425578,1.63680609 0.717383127,1.42870529 0.515126276,1.42870529 L0,1.42870529 L0,0 L4.81340677,1.958211e-16 L6.38503493,5.71421485 L6.42732402,5.71421485 L8.01445459,0 L13,0 L13,1.42870529 Z" id="Path"></path>
                </g>
            </g>
        </g>
    </g>
</svg>
