<svg width="18px" height="14px" viewBox="0 0 18 14" version="1.1" xmlns="http://www.w3.org/2000/svg" xmlns:xlink="http://www.w3.org/1999/xlink">
    <g id="Page-1" stroke="none" stroke-width="1" fill-rule="evenodd">
        <g id="medium" fill-rule="nonzero">
            <path d="M17.67,1.94194019 L16.6949838,1.94194019 C16.4411049,1.94194019 15.7767909,2.22483466 15.7767909,2.46566207 L15.7767909,11.2112293 C15.7767909,11.452656 16.4411049,11.6505923 16.6949838,11.6505923 L17.67,11.6505923 L17.67,13.5923077 L11.3592544,13.5923077 L11.3592544,11.6505923 L12.6217103,11.6505923 L12.6217103,2.5888665 L12.402013,2.5888665 L9.36415781,13.5922702 L7.0121262,13.5922702 L4.01356524,2.5888665 L3.78645466,2.5888665 L3.78645466,11.6505548 L5.04836275,11.6505548 L5.04836275,13.5922702 L0,13.5923077 L0,11.6505548 L0.700175484,11.6505548 C0.975052701,11.6505548 1.26194461,11.452656 1.26194461,11.2111918 L1.26194461,2.46566207 C1.26194461,2.2247972 0.97508922,1.94194019 0.700175484,1.94194019 L0,1.94194019 L0,0 L6.54253059,2.66166064e-16 L8.67873594,7.76693665 L8.73621657,7.76693665 L10.8934933,0 L17.67,0 L17.67,1.94194019 Z" id="Path"></path>
        </g>
    </g>
</svg>