
<svg width="12px" height="11px" viewBox="0 0 12 11" version="1.1" xmlns="http://www.w3.org/2000/svg" xmlns:xlink="http://www.w3.org/1999/xlink">
    <g id="Page-1" stroke="none" stroke-width="1" fill-rule="evenodd">
        <g id="Artboard" transform="translate(-176.000000, -120.000000)" fill-rule="nonzero">
            <g id="twitter" transform="translate(169.000000, 113.000000)">
                <path d="M10.77376,17.2173913 C15.30208,17.2173913 17.77888,13.2861492 17.77888,9.87699375 C17.77888,9.76533359 17.77888,9.65417641 17.77168,9.54352221 C18.2535191,9.1783185 18.6694506,8.72612936 19,8.20812715 C18.5506619,8.41676151 18.0739981,8.55358387 17.58592,8.61402689 C18.0998771,8.29161175 18.4845393,7.78450864 18.66832,7.18709062 C18.1850356,7.48759491 17.6563101,7.69937534 17.10496,7.81329283 C16.3417997,6.96296268 15.1291453,6.75484139 14.1469837,7.30563142 C13.164822,7.85642145 12.657412,9.02914399 12.90928,10.1662036 C10.92971,10.0622136 9.08534837,9.08245796 7.8352,7.47076777 C7.18173892,8.64955933 7.51551418,10.1575824 8.59744,10.9146284 C8.20563578,10.9024602 7.8223741,10.7917083 7.48,10.5917193 C7.48,10.6022818 7.48,10.6133472 7.48,10.6244126 C7.4803207,11.8524695 8.30644071,12.9101941 9.4552,13.1533642 C9.09273741,13.2569466 8.71243868,13.2720882 8.34352,13.1976258 C8.66605501,14.2485505 9.59035579,14.9684874 10.64368,14.989218 C9.77187282,15.7071787 8.69490857,16.0969308 7.58608,16.09576 C7.39019371,16.095366 7.19449795,16.082938 7,16.05854 C8.12590526,16.8156545 9.43595843,17.2172489 10.77376,17.2153794" id="Shape"></path>
            </g>
        </g>
    </g>
</svg>
